<?xml version="1.0" standalone="no"?>
<svg xmlns:xlink="http://www.w3.org/1999/xlink" id="wave" style="transform:rotate(0deg); transition: 0.3s" viewBox="0 0 1440 410" version="1.1" xmlns="http://www.w3.org/2000/svg"><defs><linearGradient id="sw-gradient-0" x1="0" x2="0" y1="1" y2="0"><stop stop-color="rgba(242, 243, 174, 1)" offset="0%"/><stop stop-color="rgba(242, 243, 174, 1)" offset="100%"/></linearGradient></defs><path style="transform:translate(0, 0px); opacity:1" fill="url(#sw-gradient-0)" d="M0,205L120,218.7C240,232,480,260,720,232.3C960,205,1200,123,1440,123C1680,123,1920,205,2160,246C2400,287,2640,287,2880,246C3120,205,3360,123,3600,82C3840,41,4080,41,4320,75.2C4560,109,4800,178,5040,184.5C5280,191,5520,137,5760,143.5C6000,150,6240,219,6480,252.8C6720,287,6960,287,7200,293.8C7440,301,7680,314,7920,300.7C8160,287,8400,246,8640,218.7C8880,191,9120,178,9360,143.5C9600,109,9840,55,10080,54.7C10320,55,10560,109,10800,150.3C11040,191,11280,219,11520,198.2C11760,178,12000,109,12240,95.7C12480,82,12720,123,12960,164C13200,205,13440,246,13680,246C13920,246,14160,205,14400,198.2C14640,191,14880,219,15120,239.2C15360,260,15600,273,15840,246C16080,219,16320,150,16560,150.3C16800,150,17040,219,17160,252.8L17280,287L17280,410L17160,410C17040,410,16800,410,16560,410C16320,410,16080,410,15840,410C15600,410,15360,410,15120,410C14880,410,14640,410,14400,410C14160,410,13920,410,13680,410C13440,410,13200,410,12960,410C12720,410,12480,410,12240,410C12000,410,11760,410,11520,410C11280,410,11040,410,10800,410C10560,410,10320,410,10080,410C9840,410,9600,410,9360,410C9120,410,8880,410,8640,410C8400,410,8160,410,7920,410C7680,410,7440,410,7200,410C6960,410,6720,410,6480,410C6240,410,6000,410,5760,410C5520,410,5280,410,5040,410C4800,410,4560,410,4320,410C4080,410,3840,410,3600,410C3360,410,3120,410,2880,410C2640,410,2400,410,2160,410C1920,410,1680,410,1440,410C1200,410,960,410,720,410C480,410,240,410,120,410L0,410Z"/></svg>